PathFileType	4	(X/Y/Z)	/Users/itak/Documents/Research/Walk-IL/dataset/trc/00541_00009.trc
DataRate	CameraRate	NumFrames	NumMarkers	Units	OrigDataRate	OrigDataStartFrame	OrigNumFrames
100.000000	100.000000	4	53	mm	100.000000	0	878
Frame#	Time	RPSI			LPSI			L3			STRN			T10			C7			CLAV			RBAK			LBAK			LSHO			LUPA			LAEL			LAOL			LWTS			LWPS			LFRA			LIFD			LHPS			LHTS			RSHO			RUPA			RAEL			RAOL			RWTS			RWPS			RFRA			RIFD			RHTS			RHPS			RBHD			LFHD			RFHD			LBHD			LHIP			RHIP			RASI			LASI			LKNE			LTHI			LANK			LTIP			LTOE			LMT1			LMT5			LHEE			RKNE			RTHI			RANK			RTIP			RTOE			RMT1			RMT5			RHEE			
		X1	Y1	Z1	X2	Y2	Z2	X3	Y3	Z3	X4	Y4	Z4	X5	Y5	Z5	X6	Y6	Z6	X7	Y7	Z7	X8	Y8	Z8	X9	Y9	Z9	X10	Y10	Z10	X11	Y11	Z11	X12	Y12	Z12	X13	Y13	Z13	X14	Y14	Z14	X15	Y15	Z15	X16	Y16	Z16	X17	Y17	Z17	X18	Y18	Z18	X19	Y19	Z19	X20	Y20	Z20	X21	Y21	Z21	X22	Y22	Z22	X23	Y23	Z23	X24	Y24	Z24	X25	Y25	Z25	X26	Y26	Z26	X27	Y27	Z27	X28	Y28	Z28	X29	Y29	Z29	X30	Y30	Z30	X31	Y31	Z31	X32	Y32	Z32	X33	Y33	Z33	X34	Y34	Z34	X35	Y35	Z35	X36	Y36	Z36	X37	Y37	Z37	X38	Y38	Z38	X39	Y39	Z39	X40	Y40	Z40	X41	Y41	Z41	X42	Y42	Z42	X43	Y43	Z43	X44	Y44	Z44	X45	Y45	Z45	X46	Y46	Z46	X47	Y47	Z47	X48	Y48	Z48	X49	Y49	Z49	X50	Y50	Z50	X51	Y51	Z51	X52	Y52	Z52	X53	Y53	Z53	

1	0	-761.4282836914062	1023.033081054688	412.3631591796875	-747.0849609375	1027.44580078125	280.2065124511719	-749.0869750976562	1109.314208984375	343.6942749023438	-522.9642944335938	1299.607666015625	355.2132873535156	-764.8257446289062	1234.5361328125	343.9450073242188	-725.1170043945312	1508.17041015625	359.8392028808594	-545.9625244140625	1411.3544921875	355.4148559570312	-795.169189453125	1381.055786132812	442.5555419921875	-752.7969970703125	1455.75244140625	265.4932861328125	-651.0089111328125	1483.920532226562	189.2462005615234	-655.3518676757812	1359.071655273438	106.0396957397461	-630.4271850585938	1137.3955078125	84.38196563720703	-721.110595703125	1128.041625976562	127.1199417114258	-539.2163696289062	895.03271484375	137.6822509765625	-579.6077880859375	872.0227661132812	62.20381546020508	-605.8518676757812	1051.56494140625	79.39041900634766	-538.2061157226562	724.7476196289062	132.0611877441406	-569.6556396484375	811.7487182617188	71.89604187011719	-521.0164184570312	818.1783447265625	119.3302612304688	-670.3232421875	1470.074096679688	516.3394165039062	-689.65087890625	1404.379638671875	584.2642211914062	-684.7007446289062	1112.609985351562	624.2339477539062	-737.5504760742188	1094.499877929688	595.4112548828125	-559.5006103515625	886.8280029296875	591.5299072265625	-592.3961181640625	872.4930419921875	648.7600708007812	-672.6820678710938	1058.076293945312	632.6775512695312	-536.2543334960938	720.4905395507812	584.0897827148438	-518.8072509765625	801.8945922851562	597.0859375	-573.7438354492188	798.9710083007812	646.9318237304688	-670.889892578125	1687.068603515625	424.0891723632812	-501.5210266113281	1723.157958984375	308.8659973144531	-535.44091796875	1719.521118164062	449.1585388183594	-624.2175903320312	1691.497924804688	264.8232116699219	-611.9173583984375	942.1607666015625	161.8155975341797	-652.8924560546875	942.210693359375	542.8795776367188	-560.006591796875	969.6078491210938	494.1951293945312	-536.3202514648438	963.7288208007812	218.9647979736328	-612.1290283203125	494.0231018066406	220.5906677246094	-600.3906860351562	658.9691772460938	182.6736450195312	-692.1963500976562	32.71065521240234	222.6437072753906	-676.3518676757812	252.3527679443359	211.1908874511719	-486.3245239257812	39.52099609375	293.9190063476562	-560.9698486328125	41.48945999145508	324.875244140625	-568.4541015625	35.23014068603516	217.3277130126953	-765.4182739257812	36.66677093505859	273.041259765625	-642.9638061523438	496.1823120117188	492.6844177246094	-621.6197509765625	785.2628784179688	542.6151733398438	-726.8980712890625	37.57995986938477	465.0140686035156	-645.9076538085938	354.4524536132812	477.9390563964844	-503.639404296875	40.41524505615234	439.64892578125	-565.1643676757812	39.66601943969727	394.1730651855469	-594.2223510742188	38.22714614868164	494.2001647949219	-777.459228515625	31.36069107055664	404.9110717773438	
2	0.01	-761.4175415039062	1023.03662109375	412.3721618652344	-747.0740356445312	1027.446533203125	280.2068786621094	-749.0802001953125	1109.311645507812	343.6919555664062	-522.9143676757812	1299.602661132812	355.1727600097656	-764.8198852539062	1234.542114257812	343.9549865722656	-725.0711059570312	1508.189086914062	359.7955627441406	-545.9832153320312	1411.336669921875	355.4248657226562	-795.1480712890625	1381.054321289062	442.5634765625	-752.7908325195312	1455.762939453125	265.4917297363281	-651.0045776367188	1483.91748046875	189.2449188232422	-655.3502197265625	1359.065307617188	106.0382080078125	-630.4104614257812	1137.401489257812	84.36045837402344	-721.096435546875	1128.0380859375	127.149055480957	-539.1577758789062	895.0234985351562	137.6783142089844	-579.5559692382812	872.001220703125	62.20842742919922	-605.8126831054688	1051.569213867188	79.38555145263672	-538.1564331054688	724.7315063476562	132.1055908203125	-569.6093139648438	811.7664184570312	71.87820434570312	-520.95068359375	818.194091796875	119.326774597168	-670.301513671875	1470.06787109375	516.3359375	-689.6069946289062	1404.390380859375	584.2555541992188	-684.6715698242188	1112.621826171875	624.2402954101562	-737.5066528320312	1094.5029296875	595.4326171875	-557.1180419921875	888.2323608398438	589.4833374023438	-592.322021484375	872.5007934570312	648.80126953125	-672.6358032226562	1058.0830078125	632.7086791992188	-536.1961669921875	720.5191650390625	584.1580810546875	-518.8195190429688	801.8701782226562	597.081298828125	-573.6766357421875	798.9840087890625	646.987548828125	-670.8655395507812	1687.061889648438	424.0882263183594	-501.5131225585938	1723.121948242188	308.8740234375	-535.4119873046875	1719.507202148438	449.1708068847656	-624.1574096679688	1691.481567382812	264.8488159179688	-611.8722534179688	942.1661376953125	161.8036499023438	-652.8722534179688	942.2122802734375	542.8736572265625	-559.99169921875	969.6088256835938	494.1873779296875	-536.30908203125	963.7295532226562	218.9456176757812	-612.1136474609375	494.0269775390625	220.5805511474609	-600.403564453125	658.9647216796875	182.6461029052734	-692.1703491210938	32.71056747436523	222.6517639160156	-676.3477172851562	252.3504943847656	211.1873168945312	-486.3211975097656	39.52215957641602	293.9183959960938	-560.974609375	41.49464416503906	324.8786926269531	-568.452880859375	35.23113250732422	217.3183898925781	-765.4197387695312	36.66709136962891	273.0401306152344	-642.9570922851562	496.1783752441406	492.67724609375	-621.5977783203125	785.2528076171875	542.6118774414062	-726.8988037109375	37.57826232910156	465.0147094726562	-645.9057006835938	354.4505920410156	477.9324645996094	-503.6324462890625	40.41630935668945	439.6500549316406	-565.1705932617188	39.6519660949707	394.1818542480469	-594.1887817382812	38.2286491394043	494.1734619140625	-777.4588623046875	31.35876083374023	404.9122009277344	
3	0.02	-761.4052734375	1023.041137695312	412.3818359375	-747.0612182617188	1027.447387695312	280.2077026367188	-749.070068359375	1109.309204101562	343.6907043457031	-522.85302734375	1299.595092773438	355.1222229003906	-764.8106689453125	1234.549072265625	343.966064453125	-725.01708984375	1508.209228515625	359.7481994628906	-546.0079345703125	1411.3134765625	355.43359375	-795.1217651367188	1381.052734375	442.5736999511719	-752.7792358398438	1455.774291992188	265.4885559082031	-650.9918823242188	1483.911376953125	189.2419128417969	-655.3496704101562	1359.05712890625	106.0358428955078	-630.3777465820312	1137.412719726562	84.33476257324219	-721.0743408203125	1128.031372070312	127.1768646240234	-539.0736694335938	895.0216674804688	137.6719055175781	-579.482177734375	871.974853515625	62.21549606323242	-605.7633056640625	1051.57470703125	79.38039398193359	-538.0909423828125	724.713623046875	132.1579895019531	-569.5467529296875	811.788330078125	71.85750579833984	-520.853515625	818.2164916992188	119.3193740844727	-670.2743530273438	1470.059814453125	516.3319702148438	-689.551513671875	1404.401977539062	584.2448120117188	-684.6263427734375	1112.634155273438	624.2428588867188	-737.4528198242188	1094.504760742188	595.461181640625	-554.5471801757812	889.7432250976562	587.2926635742188	-592.2297973632812	872.5122680664062	648.8473510742188	-672.5797119140625	1058.088989257812	632.743408203125	-536.1157836914062	720.5575561523438	584.2379760742188	-518.838134765625	801.8330688476562	597.0637817382812	-573.5875244140625	799.001953125	647.0464477539062	-670.8336791992188	1687.056396484375	424.0882263183594	-501.4992980957031	1723.077758789062	308.8800964355469	-535.374755859375	1719.489990234375	449.1855163574219	-624.0830078125	1691.464477539062	264.8744201660156	-611.8364868164062	942.1719360351562	161.791015625	-652.8463134765625	942.2129516601562	542.8643798828125	-559.9732666015625	969.6098022460938	494.1776733398438	-536.3013305664062	963.727294921875	218.9262542724609	-612.0982666015625	494.0305786132812	220.5703430175781	-600.4148559570312	658.9461669921875	182.6146697998047	-692.1414184570312	32.71064758300781	222.6602630615234	-676.3395385742188	252.3481597900391	211.1810913085938	-486.3179931640625	39.52336502075195	293.9176330566406	-560.9788818359375	41.49989318847656	324.8821716308594	-568.4511108398438	35.23229217529297	217.3096466064453	-765.4202880859375	36.66743087768555	273.0400390625	-642.9511108398438	496.1737976074219	492.668701171875	-621.5570678710938	785.2343139648438	542.6024780273438	-726.899658203125	37.57683181762695	465.0153198242188	-645.9036254882812	354.4500122070312	477.9252319335938	-503.6261291503906	40.41747283935547	439.6502990722656	-565.1744995117188	39.63999176025391	394.1877746582031	-594.1630249023438	38.23093032836914	494.1535034179688	-777.4581909179688	31.35671234130859	404.9131774902344	
4	0.03	-761.3920288085938	1023.046752929688	412.3915405273438	-747.0473022460938	1027.448608398438	280.2091674804688	-749.055908203125	1109.30712890625	343.6909484863281	-522.7841186523438	1299.58447265625	355.064453125	-764.7978515625	1234.556762695312	343.9772033691406	-724.9588623046875	1508.228393554688	359.7022705078125	-546.0341186523438	1411.285766601562	355.4383850097656	-795.0914916992188	1381.051391601562	442.5858459472656	-752.7611083984375	1455.785034179688	265.4833984375	-650.9685668945312	1483.9013671875	189.2364654541016	-655.3506469726562	1359.047485351562	106.0325775146484	-630.3274536132812	1137.4296875	84.30686187744141	-721.0435180664062	1128.020629882812	127.1988220214844	-538.9631958007812	895.0310668945312	137.6638641357422	-579.3849487304688	871.9454956054688	62.2263069152832	-605.705810546875	1051.581176757812	79.37602233886719	-538.0126342773438	724.6954345703125	132.2152252197266	-569.4671020507812	811.8148803710938	71.83713531494141	-520.7213134765625	818.2459106445312	119.3070068359375	-670.2427978515625	1470.050537109375	516.3275756835938	-689.486572265625	1404.412719726562	584.2325439453125	-684.5631713867188	1112.644897460938	624.23876953125	-737.3916625976562	1094.504516601562	595.49609375	-552.154541015625	891.1441650390625	585.278564453125	-592.12353515625	872.5275268554688	648.8934326171875	-672.5170288085938	1058.0927734375	632.77783203125	-536.01416015625	720.6044311523438	584.3223876953125	-518.86328125	801.7828369140625	597.0288696289062	-573.4786987304688	799.024658203125	647.10107421875	-670.7945556640625	1687.0537109375	424.0896911621094	-501.4779052734375	1723.027954101562	308.8818664550781	-535.330078125	1719.469970703125	449.2015991210938	-623.997802734375	1691.448852539062	264.89599609375	-611.8171997070312	942.1774291992188	161.7779388427734	-652.8154296875	942.2120971679688	542.8513793945312	-559.9526977539062	969.6106567382812	494.1664428710938	-536.2994384765625	963.7210693359375	218.9089965820312	-612.0853881835938	494.0331420898438	220.5614013671875	-600.423095703125	658.91748046875	182.5826721191406	-692.1148071289062	32.71092224121094	222.6675109863281	-676.3279418945312	252.3456878662109	211.1726379394531	-486.3158264160156	39.52418899536133	293.9169311523438	-560.9823608398438	41.50399398803711	324.8851928710938	-568.4491577148438	35.23345947265625	217.3025207519531	-765.4197387695312	36.66786575317383	273.0412902832031	-642.9468994140625	496.1690368652344	492.6592102050781	-621.4930419921875	785.2052001953125	542.58447265625	-726.9005126953125	37.57609939575195	465.0157470703125	-645.9024658203125	354.4510498046875	477.9187316894531	-503.6212463378906	40.41876983642578	439.6492004394531	-565.1759033203125	39.63132858276367	394.1907043457031	-594.149658203125	38.2337532043457	494.1439819335938	-777.4573364257812	31.35487365722656	404.913818359375	
